<svg width="32" height="32" viewBox="0 0 32 32" fill="none" xmlns="http://www.w3.org/2000/svg">
<rect width="32" height="32" rx="5" fill="#D9D9D9"/>
<path d="M14.6333 7.64844V24H11.8145L4.48096 12.2866V24H1.66211V7.64844H4.48096L11.8369 19.3843V7.64844H14.6333ZM24.123 16.6104H19.9565L19.9341 14.5552H23.5728C24.1867 14.5552 24.707 14.4653 25.1338 14.2856C25.568 14.0985 25.8975 13.8327 26.1221 13.4883C26.3467 13.1364 26.459 12.7134 26.459 12.2192C26.459 11.6727 26.3542 11.2272 26.1445 10.8828C25.9349 10.5384 25.613 10.2876 25.1787 10.1304C24.752 9.97314 24.2054 9.89453 23.5391 9.89453H20.8101V24H17.9912V7.64844H23.5391C24.4375 7.64844 25.2386 7.73454 25.9424 7.90674C26.6536 8.07894 27.2563 8.34847 27.7505 8.71533C28.2521 9.07471 28.6302 9.53141 28.8848 10.0854C29.1468 10.6395 29.2778 11.2983 29.2778 12.062C29.2778 12.7358 29.1169 13.3535 28.7949 13.915C28.473 14.4691 27.9976 14.922 27.3687 15.2739C26.7397 15.6258 25.9574 15.8354 25.0215 15.9028L24.123 16.6104ZM23.9995 24H19.0693L20.3384 21.7651H23.9995C24.6359 21.7651 25.1675 21.6603 25.5942 21.4507C26.021 21.2336 26.3392 20.9378 26.5488 20.5635C26.766 20.1816 26.8745 19.7362 26.8745 19.2271C26.8745 18.6955 26.7809 18.235 26.5938 17.8457C26.4066 17.4489 26.1108 17.1457 25.7065 16.936C25.3022 16.7189 24.7744 16.6104 24.123 16.6104H20.9561L20.9785 14.5552H25.1001L25.7402 15.3301C26.6387 15.36 27.3761 15.5584 27.9526 15.9253C28.5366 16.2922 28.9709 16.7676 29.2554 17.3516C29.5399 17.9355 29.6821 18.5645 29.6821 19.2383C29.6821 20.279 29.4538 21.1512 28.9971 21.855C28.5479 22.5588 27.9002 23.0941 27.0542 23.4609C26.2082 23.8203 25.1899 24 23.9995 24Z" fill="#333333"/>
</svg>
