<svg width="68" height="68" viewBox="0 0 68 68" fill="none" xmlns="http://www.w3.org/2000/svg">
<path fill-rule="evenodd" clip-rule="evenodd" d="M23.0068 18.5867C23.0068 13.1967 28.3662 8.72674 34.0001 8.72674C39.6341 8.72674 44.9935 13.1967 44.9935 18.5867C44.9935 23.567 42.4674 25.9051 39.0706 28.9174L38.9302 29.0419C35.563 32.0265 31.3935 35.7224 31.3935 43.0667C31.3935 44.5063 32.5605 45.6733 34.0001 45.6733C35.4397 45.6733 36.6068 44.5063 36.6068 43.0667C36.6068 38.1488 39.1201 35.8416 42.5296 32.8179L42.624 32.7342C46.0114 29.7309 50.2066 26.0111 50.2066 18.5867C50.2066 9.64497 41.7913 3.51343 34.0001 3.51343C26.2089 3.51343 17.7935 9.64497 17.7935 18.5867C17.7935 20.0263 18.9605 21.1934 20.4001 21.1934C21.8397 21.1934 23.0068 20.0263 23.0068 18.5867ZM34.0001 60.554C36.1909 60.554 37.9668 58.7778 37.9668 56.5873C37.9668 54.3964 36.1909 52.6207 34.0001 52.6207C31.8094 52.6207 30.0335 54.3964 30.0335 56.5873C30.0335 58.7778 31.8094 60.554 34.0001 60.554Z" fill="black"/>
</svg>
