<svg width="68" height="68" viewBox="0 0 68 68" fill="none" xmlns="http://www.w3.org/2000/svg">
<path fill-rule="evenodd" clip-rule="evenodd" d="M31.0695 17.4693L34.696 13.8426C37.618 10.9207 42.7428 8.89303 47.8357 8.16557C50.3453 7.80707 52.7185 7.78477 54.6556 8.07486C56.6607 8.37514 57.8897 8.96212 58.4641 9.53609C59.038 10.1101 59.6251 11.3389 59.9252 13.3441C60.2153 15.2811 60.1931 17.6545 59.8345 20.1642C59.1069 25.2569 57.0791 30.3818 54.1569 33.3038L33.9999 53.461L28.8026 48.264C27.9174 47.3787 26.4823 47.3787 25.5971 48.264C24.7119 49.1489 24.7119 50.5842 25.5971 51.4696L32.3971 58.2696C33.2824 59.1545 34.7175 59.1545 35.6027 58.2696L38.0832 55.7889L43.3896 64.6325C43.7487 65.2314 44.3635 65.6308 45.0563 65.7165C45.749 65.8017 46.4426 65.5628 46.9358 65.0696L56.0025 56.0029C56.507 55.4983 56.7446 54.7857 56.6439 54.0794L54.5373 39.3347L57.3629 36.5093C61.2407 32.6312 63.5196 26.4227 64.322 20.8053C64.7287 17.9601 64.7772 15.1343 64.4086 12.6727C64.05 10.2791 63.2486 7.90975 61.6691 6.33048C60.0902 4.75124 57.7206 3.94994 55.327 3.5915C52.8654 3.22285 50.0398 3.27136 47.1942 3.6778C41.5771 4.48022 35.3685 6.7591 31.4905 10.637L28.6652 13.4625L13.9205 11.3561C13.2142 11.2552 12.5016 11.4927 11.9972 11.9972L2.93051 21.0638C2.43696 21.5574 2.19832 22.2508 2.2836 22.9436C2.36889 23.6363 2.76858 24.2512 3.3671 24.6103L12.2111 29.9166L9.73055 32.3971C9.30551 32.8222 9.06669 33.3988 9.06669 33.9999C9.06669 34.6011 9.30551 35.1776 9.73055 35.6027L16.5306 42.4027C17.4158 43.2879 18.8509 43.2879 19.7361 42.4027C20.6213 41.5175 20.6213 40.0824 19.7361 39.1972L14.5389 33.9999L17.4695 31.0694L31.0695 17.4693ZM45.7834 59.8109L41.3874 52.4846L50.5303 43.3416L51.9959 53.5984L45.7834 59.8109ZM15.5153 26.6124L24.6583 17.4694L14.4013 16.0041L8.18886 22.2166L15.5153 26.6124ZM10.6694 46.9358C11.5546 46.0509 11.5546 44.6156 10.6694 43.7304C9.78423 42.8452 8.34902 42.8452 7.46384 43.7304L2.93051 48.2636C2.04532 49.1489 2.04532 50.5842 2.93051 51.4691C3.8157 52.3545 5.2509 52.3545 6.13607 51.4691L10.6694 46.9358ZM17.4695 53.7362C18.3547 52.8509 18.3547 51.4156 17.4695 50.5307C16.5844 49.6453 15.1492 49.6453 14.264 50.5307L5.19718 59.5969C4.312 60.4823 4.31198 61.9175 5.19718 62.8024C6.08235 63.6878 7.51752 63.6878 8.40269 62.8029L17.4695 53.7362ZM24.2694 60.5358C25.1546 59.6509 25.1546 58.2156 24.2694 57.3302C23.3842 56.4453 21.949 56.4453 21.0638 57.3302L16.5305 61.8636C15.6453 62.7489 15.6453 64.1842 16.5305 65.0691C17.4157 65.9545 18.8509 65.9545 19.7361 65.0691L24.2694 60.5358ZM43.0665 30.5945C46.1932 30.5945 48.7278 28.0599 48.7278 24.9332C48.7278 21.8066 46.1932 19.2719 43.0665 19.2719C39.9398 19.2719 37.4051 21.8066 37.4051 24.9332C37.4051 28.0599 39.9398 30.5945 43.0665 30.5945Z" fill="black"/>
</svg>
