<svg width="68" height="68" viewBox="0 0 68 68" fill="none" xmlns="http://www.w3.org/2000/svg">
<path fill-rule="evenodd" clip-rule="evenodd" d="M33.9998 8.16006C19.7288 8.16006 8.15982 19.729 8.15982 34.0001C8.15982 48.2709 19.7288 59.84 33.9998 59.84C48.2709 59.84 59.84 48.2709 59.84 34.0001C59.84 19.729 48.2709 8.16006 33.9998 8.16006ZM4.07983 34.0001C4.07983 17.4757 17.4755 4.08008 33.9998 4.08008C50.524 4.08008 63.92 17.4757 63.92 34.0001C63.92 50.5244 50.524 63.92 33.9998 63.92C17.4755 63.92 4.07983 50.5244 4.07983 34.0001Z" fill="black"/>
<path fill-rule="evenodd" clip-rule="evenodd" d="M61.1996 35.8132H6.7998V32.1865H61.1996V35.8132Z" fill="black"/>
<path fill-rule="evenodd" clip-rule="evenodd" d="M32.1862 61.2V6.80005H35.8128V61.2H32.1862ZM47.0332 34C47.0332 24.1502 43.4911 14.406 36.5469 7.96312L38.7052 5.63684C46.4194 12.7939 50.2066 23.4498 50.2066 34C50.2066 44.5502 46.4194 55.2061 38.7052 62.3633L36.5469 60.0368C43.4911 53.594 47.0332 43.8498 47.0332 34ZM18.1318 34C18.1318 23.4651 21.7955 12.8148 29.2747 5.65398L31.4693 7.94612C24.7437 14.3854 21.3052 24.135 21.3052 34C21.3052 43.8651 24.7438 53.6149 31.4694 60.054L29.2748 62.3461C21.7956 55.1852 18.1319 44.5351 18.1318 34Z" fill="black"/>
<path fill-rule="evenodd" clip-rule="evenodd" d="M33.9997 17.943C43.834 17.943 53.8346 19.7615 60.6133 23.5483C61.3785 23.9757 61.6523 24.9423 61.2248 25.7073C60.7978 26.4723 59.8308 26.7461 59.0661 26.3187C52.9465 22.9004 43.5561 21.1163 33.9997 21.1163C24.4433 21.1163 15.0529 22.9004 8.93349 26.3187C8.16844 26.7461 7.20184 26.4723 6.77449 25.7073C6.34718 24.9423 6.6209 23.9757 7.38594 23.5483C14.165 19.7615 24.1654 17.943 33.9997 17.943ZM33.9997 49.1867C43.834 49.1867 53.8346 47.3679 60.6133 43.5812C61.3785 43.1539 61.6523 42.1873 61.2248 41.4223C60.7978 40.6572 59.8308 40.3835 59.0661 40.8108C52.9465 44.2292 43.5561 46.0133 33.9997 46.0133C24.4433 46.0133 15.0529 44.2292 8.93349 40.8109C8.16844 40.3835 7.20184 40.6572 6.77449 41.4223C6.34718 42.1873 6.6209 43.1539 7.38594 43.5812C14.165 47.3679 24.1654 49.1867 33.9997 49.1867Z" fill="black"/>
</svg>
