<svg width="68" height="68" viewBox="0 0 68 68" fill="none" xmlns="http://www.w3.org/2000/svg">
<path fill-rule="evenodd" clip-rule="evenodd" d="M34.0003 3.97583C17.4188 3.97583 3.97681 17.4178 3.97681 33.9993C3.97681 50.5807 17.4188 64.0229 34.0003 64.0229C50.5819 64.0229 64.0237 50.5807 64.0237 33.9993C64.0237 17.4178 50.5815 3.97583 34.0003 3.97583ZM8.28348 33.9993C8.28348 19.7963 19.7973 8.28248 34.0003 8.28248C48.2033 8.28248 59.717 19.7963 59.717 33.9993C59.717 48.2021 48.2033 59.7163 34.0003 59.7163C19.7973 59.7163 8.28348 48.2021 8.28348 33.9993ZM36.2666 20.4001C36.2666 19.1482 35.2517 18.1334 33.9999 18.1334C32.7481 18.1334 31.7332 19.1482 31.7332 20.4001V34.0001C31.7332 34.6012 31.9721 35.1778 32.3971 35.6029L41.4638 44.6695C42.349 45.5546 43.7841 45.5546 44.6693 44.6695C45.5545 43.7844 45.5545 42.3492 44.6693 41.464L36.2666 33.0612V20.4001Z" fill="black"/>
</svg>
