<svg width="68" height="68" viewBox="0 0 68 68" fill="none" xmlns="http://www.w3.org/2000/svg">
<path fill-rule="evenodd" clip-rule="evenodd" d="M20.4001 4.53345C21.6519 4.53345 22.6668 5.54828 22.6668 6.80011V9.06678H45.3334V6.80011C45.3334 5.54828 46.3485 4.53345 47.6001 4.53345C48.8518 4.53345 49.8668 5.54828 49.8668 6.80011V9.06678H56.6668C60.4222 9.06678 63.4668 12.1112 63.4668 15.8668V56.6668C63.4668 60.4222 60.4222 63.4668 56.6668 63.4668H11.3334C7.5779 63.4668 4.53345 60.4222 4.53345 56.6668V15.8668C4.53345 12.1112 7.5779 9.06678 11.3334 9.06678H18.1334V6.80011C18.1334 5.54828 19.1483 4.53345 20.4001 4.53345ZM45.3334 13.6001V15.8668C45.3334 17.1186 46.3485 18.1334 47.6001 18.1334C48.8518 18.1334 49.8668 17.1186 49.8668 15.8668V13.6001H56.6668C57.9184 13.6001 58.9334 14.6149 58.9334 15.8668V22.6668H9.06678V15.8668C9.06678 14.6149 10.0816 13.6001 11.3334 13.6001H18.1334V15.8668C18.1334 17.1186 19.1483 18.1334 20.4001 18.1334C21.6519 18.1334 22.6668 17.1186 22.6668 15.8668V13.6001H45.3334ZM9.06678 27.2001V56.6668C9.06678 57.9184 10.0816 58.9334 11.3334 58.9334H56.6668C57.9184 58.9334 58.9334 57.9184 58.9334 56.6668V27.2001H9.06678ZM31.7334 34.0001C31.7334 32.7483 32.7483 31.7334 34.0001 31.7334C35.2519 31.7334 36.2668 32.7483 36.2668 34.0001C36.2668 35.2519 35.2519 36.2668 34.0001 36.2668C32.7483 36.2668 31.7334 35.2519 31.7334 34.0001ZM43.0668 31.7334C41.8149 31.7334 40.8001 32.7483 40.8001 34.0001C40.8001 35.2519 41.8149 36.2668 43.0668 36.2668C44.3186 36.2668 45.3334 35.2519 45.3334 34.0001C45.3334 32.7483 44.3186 31.7334 43.0668 31.7334ZM49.8668 34.0001C49.8668 32.7483 50.8818 31.7334 52.1334 31.7334C53.3851 31.7334 54.4001 32.7483 54.4001 34.0001C54.4001 35.2519 53.3851 36.2668 52.1334 36.2668C50.8818 36.2668 49.8668 35.2519 49.8668 34.0001ZM52.1334 40.8001C50.8818 40.8001 49.8668 41.8149 49.8668 43.0668C49.8668 44.3186 50.8818 45.3334 52.1334 45.3334C53.3851 45.3334 54.4001 44.3186 54.4001 43.0668C54.4001 41.8149 53.3851 40.8001 52.1334 40.8001ZM40.8001 43.0668C40.8001 41.8149 41.8149 40.8001 43.0668 40.8001C44.3186 40.8001 45.3334 41.8149 45.3334 43.0668C45.3334 44.3186 44.3186 45.3334 43.0668 45.3334C41.8149 45.3334 40.8001 44.3186 40.8001 43.0668ZM34.0001 40.8001C32.7483 40.8001 31.7334 41.8149 31.7334 43.0668C31.7334 44.3186 32.7483 45.3334 34.0001 45.3334C35.2519 45.3334 36.2668 44.3186 36.2668 43.0668C36.2668 41.8149 35.2519 40.8001 34.0001 40.8001ZM22.6668 43.0668C22.6668 41.8149 23.6816 40.8001 24.9334 40.8001C26.1853 40.8001 27.2001 41.8149 27.2001 43.0668C27.2001 44.3186 26.1853 45.3334 24.9334 45.3334C23.6816 45.3334 22.6668 44.3186 22.6668 43.0668ZM15.8668 40.8001C14.6149 40.8001 13.6001 41.8149 13.6001 43.0668C13.6001 44.3186 14.6149 45.3334 15.8668 45.3334C17.1186 45.3334 18.1334 44.3186 18.1334 43.0668C18.1334 41.8149 17.1186 40.8001 15.8668 40.8001ZM13.6001 52.1334C13.6001 50.8818 14.6149 49.8668 15.8668 49.8668C17.1186 49.8668 18.1334 50.8818 18.1334 52.1334C18.1334 53.3851 17.1186 54.4001 15.8668 54.4001C14.6149 54.4001 13.6001 53.3851 13.6001 52.1334ZM24.9334 49.8668C23.6816 49.8668 22.6668 50.8818 22.6668 52.1334C22.6668 53.3851 23.6816 54.4001 24.9334 54.4001C26.1853 54.4001 27.2001 53.3851 27.2001 52.1334C27.2001 50.8818 26.1853 49.8668 24.9334 49.8668ZM31.7334 52.1334C31.7334 50.8818 32.7483 49.8668 34.0001 49.8668C35.2519 49.8668 36.2668 50.8818 36.2668 52.1334C36.2668 53.3851 35.2519 54.4001 34.0001 54.4001C32.7483 54.4001 31.7334 53.3851 31.7334 52.1334ZM43.0668 49.8668C41.8149 49.8668 40.8001 50.8818 40.8001 52.1334C40.8001 53.3851 41.8149 54.4001 43.0668 54.4001C44.3186 54.4001 45.3334 53.3851 45.3334 52.1334C45.3334 50.8818 44.3186 49.8668 43.0668 49.8668Z" fill="black"/>
</svg>
