<svg width="31" height="31" viewBox="0 0 31 31" fill="none" xmlns="http://www.w3.org/2000/svg">
<g clip-path="url(#clip0_9_97)">
<path d="M15.4401 0.423828C6.91385 0.423828 0 7.33646 0 15.8639C0 22.6858 4.42404 28.4734 10.5589 30.515C11.3305 30.6579 11.6139 30.1801 11.6139 29.7722C11.6139 29.4041 11.5994 28.1877 11.5929 26.8976C7.29735 27.8316 6.39096 25.0759 6.39096 25.0759C5.68862 23.2912 4.67664 22.8167 4.67664 22.8167C3.27583 21.8584 4.78223 21.878 4.78223 21.878C6.33272 21.987 7.14913 23.4692 7.14913 23.4692C8.52621 25.8297 10.7611 25.1472 11.6422 24.7528C11.7807 23.7547 12.1809 23.0737 12.6224 22.6881C9.19307 22.2976 5.58787 20.9737 5.58787 15.0575C5.58787 13.3719 6.19104 11.9945 7.1788 10.9132C7.01847 10.5243 6.49002 8.95391 7.32835 6.82714C7.32835 6.82714 8.6249 6.41216 11.5755 8.40984C12.807 8.06763 14.1279 7.89616 15.4401 7.89035C16.7522 7.89616 18.0741 8.06763 19.308 8.40984C22.2551 6.41216 23.5498 6.82714 23.5498 6.82714C24.3902 8.95391 23.8615 10.5243 23.7012 10.9132C24.6911 11.9945 25.2902 13.3718 25.2902 15.0575C25.2902 20.9877 21.6782 22.2936 18.2401 22.6758C18.7939 23.1549 19.2873 24.0946 19.2873 25.535C19.2873 27.6009 19.2694 29.2636 19.2694 29.7722C19.2694 30.1831 19.5473 30.6646 20.3301 30.513C26.4615 28.469 30.88 22.6835 30.88 15.8639C30.88 7.33646 23.9671 0.423828 15.4401 0.423828Z" fill="#414141"/>
<path d="M5.78283 22.4186C5.74893 22.4952 5.62808 22.5182 5.51824 22.4657C5.40623 22.4153 5.34326 22.3107 5.37959 22.2336C5.41289 22.1547 5.53374 22.1327 5.64551 22.1857C5.75777 22.236 5.82171 22.3415 5.78283 22.4186ZM6.54233 23.0962C6.46871 23.1645 6.32473 23.1328 6.22701 23.0249C6.12601 22.9172 6.10712 22.7734 6.18184 22.704C6.25776 22.6358 6.39739 22.6676 6.49862 22.7754C6.59961 22.8843 6.61923 23.0273 6.54221 23.0963M7.0634 23.9632C6.96871 24.029 6.81395 23.9673 6.7184 23.83C6.62383 23.6928 6.62383 23.5281 6.72046 23.4621C6.81637 23.3962 6.96871 23.4555 7.06558 23.5917C7.16003 23.7313 7.16003 23.896 7.06328 23.9634M7.94448 24.9675C7.85983 25.0607 7.67965 25.0358 7.54765 24.9084C7.41276 24.7839 7.3751 24.6072 7.45998 24.5138C7.5456 24.4204 7.72687 24.4466 7.85983 24.5729C7.99389 24.6972 8.03469 24.8752 7.94448 24.9675ZM9.08325 25.3065C9.04607 25.4274 8.87242 25.4824 8.69756 25.431C8.52294 25.3781 8.40863 25.2364 8.44387 25.1142C8.4802 24.9925 8.65457 24.9353 8.83076 24.9902C9.00514 25.0429 9.11957 25.1835 9.08325 25.3065ZM10.3794 25.4503C10.3838 25.5777 10.2355 25.6832 10.0519 25.6855C9.86721 25.6895 9.7179 25.5865 9.71596 25.4613C9.71596 25.3327 9.86091 25.2281 10.0455 25.225C10.229 25.2214 10.3794 25.3237 10.3794 25.4503ZM11.6526 25.4015C11.6747 25.5257 11.547 25.6533 11.3648 25.6872C11.1856 25.7199 11.0197 25.6433 10.9968 25.5201C10.9745 25.3927 11.1045 25.2652 11.2834 25.2322C11.466 25.2004 11.6294 25.2752 11.6526 25.4015Z" fill="#414141"/>
</g>
<defs>
<clipPath id="clip0_9_97">
<rect width="31" height="31" fill="white"/>
</clipPath>
</defs>
</svg>
