<svg width="48" height="48" viewBox="0 0 48 48" fill="none" xmlns="http://www.w3.org/2000/svg">
<circle cx="24" cy="24" r="24" fill="white"/>
<path fill-rule="evenodd" clip-rule="evenodd" d="M10.2 12.3999C8.98497 12.3999 8 13.3849 8 14.5999V34.3999C8 35.615 8.98497 36.5999 10.2 36.5999H38.8C40.0151 36.5999 41 35.615 41 34.3999V14.5999C41 13.3849 40.0151 12.3999 38.8 12.3999H10.2ZM10.2 14.5999H38.8V16.6348C38.6183 16.6346 38.4344 16.6844 38.2696 16.789L24.5 25.5274L10.7305 16.789C10.5657 16.6844 10.3817 16.6346 10.2 16.6348V14.5999ZM10.2 18.7974V34.3999H38.8V18.7974L25.0305 27.5358C24.7067 27.7413 24.2933 27.7413 23.9695 27.5358L10.2 18.7974Z" fill="black"/>
</svg>
