<svg width="58" height="58" viewBox="0 0 58 58" fill="none" xmlns="http://www.w3.org/2000/svg">
<circle cx="29" cy="29" r="29" fill="#D9D9D9"/>
<path d="M25.3125 27.5938H27.2188C28.3854 27.5938 29.3594 27.3958 30.1406 27C30.9323 26.5938 31.526 26.0573 31.9219 25.3906C32.3281 24.724 32.5312 23.9844 32.5312 23.1719C32.5312 22.2552 32.3594 21.4531 32.0156 20.7656C31.6719 20.0677 31.1458 19.526 30.4375 19.1406C29.7396 18.7448 28.8438 18.5469 27.75 18.5469C26.7917 18.5469 25.9375 18.7344 25.1875 19.1094C24.4375 19.4844 23.8438 20.0208 23.4062 20.7188C22.9688 21.4167 22.75 22.25 22.75 23.2188H20.8906C20.8906 21.9792 21.1875 20.8906 21.7812 19.9531C22.375 19.0052 23.1927 18.2656 24.2344 17.7344C25.276 17.2031 26.4479 16.9375 27.75 16.9375C29.0938 16.9375 30.2604 17.1823 31.25 17.6719C32.25 18.1615 33.0208 18.875 33.5625 19.8125C34.1146 20.75 34.3906 21.8906 34.3906 23.2344C34.3906 23.9219 34.2396 24.599 33.9375 25.2656C33.6458 25.9323 33.2083 26.5365 32.625 27.0781C32.0417 27.6094 31.3177 28.0365 30.4531 28.3594C29.5885 28.6823 28.5833 28.8438 27.4375 28.8438H25.3125V27.5938ZM25.3125 29.2031V27.9688H27.4375C28.7396 27.9688 29.8542 28.1198 30.7812 28.4219C31.7083 28.7135 32.4688 29.1302 33.0625 29.6719C33.6667 30.2031 34.1094 30.8229 34.3906 31.5312C34.6719 32.2396 34.8125 33 34.8125 33.8125C34.8125 34.8542 34.6406 35.776 34.2969 36.5781C33.9531 37.3802 33.4635 38.0625 32.8281 38.625C32.2031 39.1771 31.4635 39.599 30.6094 39.8906C29.7656 40.1719 28.8385 40.3125 27.8281 40.3125C26.9115 40.3125 26.0156 40.1771 25.1406 39.9062C24.276 39.6354 23.4948 39.2344 22.7969 38.7031C22.1094 38.1615 21.5625 37.4844 21.1562 36.6719C20.75 35.849 20.5469 34.901 20.5469 33.8281H22.4062C22.4062 34.7865 22.6354 35.6354 23.0938 36.375C23.5521 37.1042 24.1875 37.6771 25 38.0938C25.8229 38.5 26.7656 38.7031 27.8281 38.7031C28.901 38.7031 29.8177 38.5208 30.5781 38.1562C31.349 37.7812 31.9375 37.2344 32.3438 36.5156C32.75 35.7969 32.9531 34.9167 32.9531 33.875C32.9531 32.7812 32.7083 31.8906 32.2188 31.2031C31.7396 30.5156 31.0677 30.0104 30.2031 29.6875C29.349 29.3646 28.3542 29.2031 27.2188 29.2031H25.3125Z" fill="black"/>
</svg>
