<svg width="48" height="48" viewBox="0 0 48 48" fill="none" xmlns="http://www.w3.org/2000/svg">
<circle cx="24" cy="24" r="24" fill="white"/>
<path fill-rule="evenodd" clip-rule="evenodd" d="M11.4 9.2002C10.1849 9.2002 9.19995 10.1852 9.19995 11.4002V35.6002C9.19995 36.8153 10.1849 37.8002 11.4 37.8002H35.5999C36.815 37.8002 37.7999 36.8153 37.7999 35.6002V11.4002C37.7999 10.1852 36.815 9.2002 35.5999 9.2002H11.4ZM13.71 20.2002H17.8899V33.4002H13.71V20.2002ZM18.165 15.8112C18.165 17.1174 17.1061 18.1762 15.8 18.1762C14.4938 18.1762 13.435 17.1174 13.435 15.8112C13.435 14.505 14.4938 13.4462 15.8 13.4462C17.1061 13.4462 18.165 14.505 18.165 15.8112ZM33.3999 25.3859C33.3999 21.4148 30.8334 19.8709 28.2838 19.8709C27.449 19.8298 26.6178 20.0048 25.8732 20.3785C25.3077 20.6623 24.7158 21.3117 24.2593 22.441H24.1419V20.2012H20.2V33.4105H24.3935V26.3848C24.3329 25.6653 24.5631 24.7353 25.0343 24.1819C25.5054 23.6285 26.1793 23.4963 26.6903 23.4292H26.8496C28.1832 23.4292 29.1729 24.2548 29.1729 26.3353V33.4105H33.3663L33.3999 25.3859Z" fill="black"/>
</svg>
