<svg width="58" height="58" viewBox="0 0 58 58" fill="none" xmlns="http://www.w3.org/2000/svg">
<circle cx="29" cy="29" r="29" fill="#D9D9D9"/>
<path d="M35.3906 38.3906V40H21.1562V38.5469L28.6094 30.0938C29.5365 29.0417 30.276 28.1198 30.8281 27.3281C31.3802 26.526 31.776 25.7969 32.0156 25.1406C32.2656 24.474 32.3906 23.8281 32.3906 23.2031C32.3906 22.2865 32.2083 21.4792 31.8438 20.7812C31.4896 20.0833 30.9583 19.5365 30.25 19.1406C29.5417 18.7448 28.6667 18.5469 27.625 18.5469C26.5833 18.5469 25.6771 18.7708 24.9062 19.2188C24.1354 19.6667 23.5417 20.2917 23.125 21.0938C22.7188 21.8854 22.5156 22.7865 22.5156 23.7969H20.6562C20.6562 22.5469 20.9323 21.401 21.4844 20.3594C22.0469 19.3177 22.849 18.4896 23.8906 17.875C24.9323 17.25 26.1771 16.9375 27.625 16.9375C29 16.9375 30.1823 17.1823 31.1719 17.6719C32.1615 18.151 32.9219 18.8438 33.4531 19.75C33.9948 20.6562 34.2656 21.75 34.2656 23.0312C34.2656 23.7188 34.1406 24.4115 33.8906 25.1094C33.651 25.8073 33.3177 26.5052 32.8906 27.2031C32.474 27.8906 31.9948 28.5729 31.4531 29.25C30.9219 29.9271 30.3646 30.5938 29.7812 31.25L23.4375 38.3906H35.3906Z" fill="black"/>
</svg>
