<svg width="32" height="32" viewBox="0 0 32 32" fill="none" xmlns="http://www.w3.org/2000/svg">
<path d="M21.3333 10.6667C23.4551 10.6667 25.4899 11.5096 26.9902 13.0099C28.4905 14.5102 29.3333 16.545 29.3333 18.6667V28.0001H24V18.6667C24 17.9595 23.7191 17.2812 23.219 16.7811C22.7189 16.281 22.0406 16.0001 21.3333 16.0001C20.6261 16.0001 19.9478 16.281 19.4477 16.7811C18.9476 17.2812 18.6667 17.9595 18.6667 18.6667V28.0001H13.3333V18.6667C13.3333 16.545 14.1762 14.5102 15.6765 13.0099C17.1768 11.5096 19.2116 10.6667 21.3333 10.6667Z" stroke="#414141" stroke-width="3" stroke-linecap="round" stroke-linejoin="round"/>
<path d="M8.00001 12.0001H2.66667V28.0001H8.00001V12.0001Z" stroke="#414141" stroke-width="3" stroke-linecap="round" stroke-linejoin="round"/>
<path d="M5.33334 8.00008C6.8061 8.00008 8.00001 6.80617 8.00001 5.33341C8.00001 3.86066 6.8061 2.66675 5.33334 2.66675C3.86058 2.66675 2.66667 3.86066 2.66667 5.33341C2.66667 6.80617 3.86058 8.00008 5.33334 8.00008Z" stroke="#414141" stroke-width="3" stroke-linecap="round" stroke-linejoin="round"/>
</svg>
