<svg width="479" height="377" viewBox="0 0 479 377" fill="none" xmlns="http://www.w3.org/2000/svg">
<rect width="479" height="377" rx="5" fill="white"/>
<rect x="34" y="22" width="411" height="21" rx="10.5" fill="#EBEBEB"/>
<rect x="288" y="91" width="165" height="151" rx="15" fill="#EBEBEB"/>
<rect x="34" y="121" width="209" height="12" rx="6" fill="#AEAEAE"/>
<rect x="34" y="190" width="87" height="19" rx="9.5" fill="#252E95"/>
<rect x="34" y="146" width="209" height="6" rx="3" fill="#D6D6D6"/>
<rect x="34" y="288" width="340" height="6" rx="3" fill="#D6D6D6"/>
<rect x="34" y="298" width="303" height="6" rx="3" fill="#D6D6D6"/>
<rect x="34" y="308" width="340" height="6" rx="3" fill="#D6D6D6"/>
<rect x="34" y="318" width="329" height="6" rx="3" fill="#D6D6D6"/>
<rect x="34" y="328" width="340" height="6" rx="3" fill="#D6D6D6"/>
<rect x="34" y="156" width="183" height="6" rx="3" fill="#D6D6D6"/>
<rect x="34" y="166" width="202" height="6" rx="3" fill="#D6D6D6"/>
<path d="M48.7676 195.891V203H47.8252V195.891H48.7676ZM51.7461 199.089V199.86H48.5625V199.089H51.7461ZM52.2295 195.891V196.662H48.5625V195.891H52.2295ZM53.9922 198.547V203H53.0889V197.717H53.9678L53.9922 198.547ZM55.6426 197.688L55.6377 198.527C55.5628 198.511 55.4912 198.501 55.4229 198.498C55.3577 198.492 55.2829 198.488 55.1982 198.488C54.9899 198.488 54.806 198.521 54.6465 198.586C54.487 198.651 54.3519 198.742 54.2412 198.859C54.1305 198.977 54.0426 199.117 53.9775 199.279C53.9157 199.439 53.875 199.615 53.8555 199.807L53.6016 199.953C53.6016 199.634 53.6325 199.335 53.6943 199.055C53.7594 198.775 53.8587 198.527 53.9922 198.312C54.1257 198.094 54.2949 197.925 54.5 197.805C54.7083 197.681 54.9557 197.619 55.2422 197.619C55.3073 197.619 55.3822 197.627 55.4668 197.644C55.5514 197.657 55.61 197.671 55.6426 197.688ZM58.5723 203.098C58.2044 203.098 57.8708 203.036 57.5713 202.912C57.2751 202.785 57.0195 202.608 56.8047 202.38C56.5931 202.152 56.4303 201.882 56.3164 201.569C56.2025 201.257 56.1455 200.915 56.1455 200.544V200.339C56.1455 199.909 56.209 199.527 56.3359 199.191C56.4629 198.853 56.6354 198.566 56.8535 198.332C57.0716 198.098 57.319 197.92 57.5957 197.8C57.8724 197.679 58.1589 197.619 58.4551 197.619C58.8327 197.619 59.1582 197.684 59.4316 197.814C59.7083 197.945 59.9346 198.127 60.1104 198.361C60.2861 198.592 60.4163 198.866 60.501 199.182C60.5856 199.494 60.6279 199.836 60.6279 200.207V200.612H56.6826V199.875H59.7246V199.807C59.7116 199.572 59.6628 199.344 59.5781 199.123C59.4967 198.902 59.3665 198.719 59.1875 198.576C59.0085 198.433 58.7643 198.361 58.4551 198.361C58.25 198.361 58.0612 198.405 57.8887 198.493C57.7161 198.578 57.568 198.705 57.4443 198.874C57.3206 199.043 57.2246 199.25 57.1562 199.494C57.0879 199.738 57.0537 200.02 57.0537 200.339V200.544C57.0537 200.795 57.0879 201.031 57.1562 201.252C57.2279 201.47 57.3304 201.662 57.4639 201.828C57.6006 201.994 57.765 202.124 57.957 202.219C58.1523 202.313 58.3737 202.36 58.6211 202.36C58.9401 202.36 59.2103 202.295 59.4316 202.165C59.653 202.035 59.8467 201.861 60.0127 201.643L60.5596 202.077C60.4456 202.25 60.3008 202.414 60.125 202.57C59.9492 202.727 59.7327 202.854 59.4756 202.951C59.2217 203.049 58.9206 203.098 58.5723 203.098ZM63.875 203.098C63.5072 203.098 63.1735 203.036 62.874 202.912C62.5778 202.785 62.3223 202.608 62.1074 202.38C61.8958 202.152 61.7331 201.882 61.6191 201.569C61.5052 201.257 61.4482 200.915 61.4482 200.544V200.339C61.4482 199.909 61.5117 199.527 61.6387 199.191C61.7656 198.853 61.9382 198.566 62.1562 198.332C62.3743 198.098 62.6217 197.92 62.8984 197.8C63.1751 197.679 63.4616 197.619 63.7578 197.619C64.1354 197.619 64.4609 197.684 64.7344 197.814C65.0111 197.945 65.2373 198.127 65.4131 198.361C65.5889 198.592 65.7191 198.866 65.8037 199.182C65.8883 199.494 65.9307 199.836 65.9307 200.207V200.612H61.9854V199.875H65.0273V199.807C65.0143 199.572 64.9655 199.344 64.8809 199.123C64.7995 198.902 64.6693 198.719 64.4902 198.576C64.3112 198.433 64.0671 198.361 63.7578 198.361C63.5527 198.361 63.3639 198.405 63.1914 198.493C63.0189 198.578 62.8708 198.705 62.7471 198.874C62.6234 199.043 62.5273 199.25 62.459 199.494C62.3906 199.738 62.3564 200.02 62.3564 200.339V200.544C62.3564 200.795 62.3906 201.031 62.459 201.252C62.5306 201.47 62.6331 201.662 62.7666 201.828C62.9033 201.994 63.0677 202.124 63.2598 202.219C63.4551 202.313 63.6764 202.36 63.9238 202.36C64.2428 202.36 64.513 202.295 64.7344 202.165C64.9557 202.035 65.1494 201.861 65.3154 201.643L65.8623 202.077C65.7484 202.25 65.6035 202.414 65.4277 202.57C65.252 202.727 65.0355 202.854 64.7783 202.951C64.5244 203.049 64.2233 203.098 63.875 203.098ZM74.1191 202.233V203H70.3545V202.233H74.1191ZM70.5449 195.891V203H69.6025V195.891H70.5449ZM73.6211 198.947V199.714H70.3545V198.947H73.6211ZM74.0703 195.891V196.662H70.3545V195.891H74.0703ZM78.2256 201.599C78.2256 201.468 78.1963 201.348 78.1377 201.237C78.0824 201.123 77.9668 201.021 77.791 200.93C77.6185 200.835 77.3581 200.754 77.0098 200.686C76.7168 200.624 76.4515 200.55 76.2139 200.466C75.9795 200.381 75.7793 200.279 75.6133 200.158C75.4505 200.038 75.3252 199.896 75.2373 199.733C75.1494 199.571 75.1055 199.38 75.1055 199.162C75.1055 198.954 75.151 198.757 75.2422 198.571C75.3366 198.386 75.4684 198.221 75.6377 198.078C75.8102 197.935 76.0169 197.823 76.2578 197.741C76.4987 197.66 76.7673 197.619 77.0635 197.619C77.4867 197.619 77.848 197.694 78.1475 197.844C78.4469 197.993 78.6764 198.194 78.8359 198.444C78.9954 198.692 79.0752 198.967 79.0752 199.27H78.1719C78.1719 199.123 78.1279 198.981 78.04 198.845C77.9554 198.705 77.8301 198.589 77.6641 198.498C77.5013 198.407 77.3011 198.361 77.0635 198.361C76.8128 198.361 76.6094 198.4 76.4531 198.479C76.3001 198.553 76.1878 198.649 76.1162 198.767C76.0479 198.884 76.0137 199.007 76.0137 199.138C76.0137 199.235 76.0299 199.323 76.0625 199.401C76.0983 199.476 76.1602 199.546 76.248 199.611C76.3359 199.673 76.4596 199.732 76.6191 199.787C76.7786 199.842 76.9821 199.898 77.2295 199.953C77.6624 200.051 78.0189 200.168 78.2988 200.305C78.5788 200.441 78.7871 200.609 78.9238 200.808C79.0605 201.006 79.1289 201.247 79.1289 201.53C79.1289 201.761 79.0801 201.973 78.9824 202.165C78.888 202.357 78.7497 202.523 78.5674 202.663C78.3883 202.8 78.1735 202.907 77.9229 202.985C77.6755 203.06 77.3971 203.098 77.0879 203.098C76.6224 203.098 76.2285 203.015 75.9062 202.849C75.584 202.683 75.3398 202.468 75.1738 202.204C75.0078 201.94 74.9248 201.662 74.9248 201.369H75.833C75.846 201.617 75.9176 201.813 76.0479 201.96C76.1781 202.103 76.3376 202.206 76.5264 202.268C76.7152 202.326 76.9023 202.355 77.0879 202.355C77.3353 202.355 77.542 202.323 77.708 202.258C77.8773 202.193 78.0059 202.103 78.0938 201.989C78.1816 201.875 78.2256 201.745 78.2256 201.599ZM82.5273 197.717V198.41H79.6709V197.717H82.5273ZM80.6377 196.433H81.541V201.691C81.541 201.87 81.5687 202.006 81.624 202.097C81.6794 202.188 81.751 202.248 81.8389 202.277C81.9268 202.307 82.0212 202.321 82.1221 202.321C82.1969 202.321 82.2751 202.315 82.3564 202.302C82.4411 202.285 82.5046 202.272 82.5469 202.263L82.5518 203C82.4801 203.023 82.3857 203.044 82.2686 203.063C82.1546 203.086 82.0163 203.098 81.8535 203.098C81.6322 203.098 81.4287 203.054 81.2432 202.966C81.0576 202.878 80.9095 202.731 80.7988 202.526C80.6914 202.318 80.6377 202.038 80.6377 201.687V196.433ZM84.5684 197.717V203H83.6602V197.717H84.5684ZM83.5918 196.315C83.5918 196.169 83.6357 196.045 83.7236 195.944C83.8148 195.843 83.9482 195.793 84.124 195.793C84.2965 195.793 84.4284 195.843 84.5195 195.944C84.6139 196.045 84.6611 196.169 84.6611 196.315C84.6611 196.455 84.6139 196.576 84.5195 196.677C84.4284 196.774 84.2965 196.823 84.124 196.823C83.9482 196.823 83.8148 196.774 83.7236 196.677C83.6357 196.576 83.5918 196.455 83.5918 196.315ZM86.917 198.767V203H86.0088V197.717H86.8682L86.917 198.767ZM86.7314 200.158L86.3115 200.144C86.3148 199.782 86.362 199.449 86.4531 199.143C86.5443 198.833 86.6794 198.565 86.8584 198.337C87.0374 198.109 87.2604 197.933 87.5273 197.81C87.7943 197.683 88.1035 197.619 88.4551 197.619C88.7025 197.619 88.9303 197.655 89.1387 197.727C89.347 197.795 89.5277 197.904 89.6807 198.054C89.8337 198.203 89.9525 198.396 90.0371 198.63C90.1217 198.864 90.1641 199.147 90.1641 199.479V203H89.2607V199.523C89.2607 199.247 89.2135 199.025 89.1191 198.859C89.028 198.693 88.8978 198.573 88.7285 198.498C88.5592 198.42 88.3607 198.381 88.1328 198.381C87.8659 198.381 87.6429 198.428 87.4639 198.522C87.2848 198.617 87.1416 198.747 87.0342 198.913C86.9268 199.079 86.8486 199.27 86.7998 199.484C86.7542 199.696 86.7314 199.921 86.7314 200.158ZM90.1543 199.66L89.5488 199.846C89.5521 199.556 89.5993 199.278 89.6904 199.011C89.7848 198.744 89.9199 198.506 90.0957 198.298C90.2747 198.09 90.4945 197.925 90.7549 197.805C91.0153 197.681 91.3132 197.619 91.6484 197.619C91.9316 197.619 92.1823 197.657 92.4004 197.731C92.6217 197.806 92.8073 197.922 92.957 198.078C93.11 198.231 93.2256 198.428 93.3037 198.669C93.3818 198.91 93.4209 199.196 93.4209 199.528V203H92.5127V199.519C92.5127 199.222 92.4655 198.993 92.3711 198.83C92.2799 198.664 92.1497 198.549 91.9805 198.483C91.8145 198.415 91.6159 198.381 91.3848 198.381C91.1862 198.381 91.0104 198.415 90.8574 198.483C90.7044 198.552 90.5758 198.646 90.4717 198.767C90.3675 198.884 90.2878 199.019 90.2324 199.172C90.1803 199.325 90.1543 199.488 90.1543 199.66ZM97.9033 202.097V199.377C97.9033 199.169 97.861 198.988 97.7764 198.835C97.695 198.679 97.5713 198.558 97.4053 198.474C97.2393 198.389 97.0342 198.347 96.79 198.347C96.5622 198.347 96.362 198.386 96.1895 198.464C96.0202 198.542 95.8867 198.645 95.7891 198.771C95.6947 198.898 95.6475 199.035 95.6475 199.182H94.7441C94.7441 198.993 94.793 198.806 94.8906 198.62C94.9883 198.435 95.1283 198.267 95.3105 198.117C95.4961 197.964 95.7174 197.844 95.9746 197.756C96.235 197.665 96.5247 197.619 96.8438 197.619C97.2279 197.619 97.5664 197.684 97.8594 197.814C98.1556 197.945 98.3867 198.142 98.5527 198.405C98.722 198.666 98.8066 198.993 98.8066 199.387V201.848C98.8066 202.023 98.8213 202.211 98.8506 202.409C98.8831 202.608 98.9303 202.779 98.9922 202.922V203H98.0498C98.0042 202.896 97.9684 202.757 97.9424 202.585C97.9163 202.409 97.9033 202.246 97.9033 202.097ZM98.0596 199.797L98.0693 200.432H97.1562C96.8991 200.432 96.6696 200.453 96.4678 200.495C96.266 200.534 96.0967 200.594 95.96 200.676C95.8232 200.757 95.7191 200.86 95.6475 200.983C95.5758 201.104 95.54 201.245 95.54 201.408C95.54 201.574 95.5775 201.726 95.6523 201.862C95.7272 201.999 95.8395 202.108 95.9893 202.189C96.1423 202.268 96.3294 202.307 96.5508 202.307C96.8275 202.307 97.0716 202.248 97.2832 202.131C97.4948 202.014 97.6624 201.87 97.7861 201.701C97.9131 201.532 97.9814 201.368 97.9912 201.208L98.377 201.643C98.3542 201.779 98.2923 201.931 98.1914 202.097C98.0905 202.263 97.9554 202.422 97.7861 202.575C97.6201 202.725 97.4215 202.85 97.1904 202.951C96.9626 203.049 96.7054 203.098 96.4189 203.098C96.0609 203.098 95.7467 203.028 95.4766 202.888C95.2096 202.748 95.0013 202.561 94.8516 202.326C94.7051 202.089 94.6318 201.823 94.6318 201.53C94.6318 201.247 94.6872 200.998 94.7979 200.783C94.9085 200.565 95.068 200.384 95.2764 200.241C95.4847 200.095 95.7354 199.984 96.0283 199.909C96.3213 199.834 96.6484 199.797 97.0098 199.797H98.0596ZM102.439 197.717V198.41H99.583V197.717H102.439ZM100.55 196.433H101.453V201.691C101.453 201.87 101.481 202.006 101.536 202.097C101.591 202.188 101.663 202.248 101.751 202.277C101.839 202.307 101.933 202.321 102.034 202.321C102.109 202.321 102.187 202.315 102.269 202.302C102.353 202.285 102.417 202.272 102.459 202.263L102.464 203C102.392 203.023 102.298 203.044 102.181 203.063C102.067 203.086 101.928 203.098 101.766 203.098C101.544 203.098 101.341 203.054 101.155 202.966C100.97 202.878 100.822 202.731 100.711 202.526C100.604 202.318 100.55 202.038 100.55 201.687V196.433ZM105.691 203.098C105.324 203.098 104.99 203.036 104.69 202.912C104.394 202.785 104.139 202.608 103.924 202.38C103.712 202.152 103.549 201.882 103.436 201.569C103.322 201.257 103.265 200.915 103.265 200.544V200.339C103.265 199.909 103.328 199.527 103.455 199.191C103.582 198.853 103.755 198.566 103.973 198.332C104.191 198.098 104.438 197.92 104.715 197.8C104.992 197.679 105.278 197.619 105.574 197.619C105.952 197.619 106.277 197.684 106.551 197.814C106.827 197.945 107.054 198.127 107.229 198.361C107.405 198.592 107.535 198.866 107.62 199.182C107.705 199.494 107.747 199.836 107.747 200.207V200.612H103.802V199.875H106.844V199.807C106.831 199.572 106.782 199.344 106.697 199.123C106.616 198.902 106.486 198.719 106.307 198.576C106.128 198.433 105.883 198.361 105.574 198.361C105.369 198.361 105.18 198.405 105.008 198.493C104.835 198.578 104.687 198.705 104.563 198.874C104.44 199.043 104.344 199.25 104.275 199.494C104.207 199.738 104.173 200.02 104.173 200.339V200.544C104.173 200.795 104.207 201.031 104.275 201.252C104.347 201.47 104.45 201.662 104.583 201.828C104.72 201.994 104.884 202.124 105.076 202.219C105.271 202.313 105.493 202.36 105.74 202.36C106.059 202.36 106.329 202.295 106.551 202.165C106.772 202.035 106.966 201.861 107.132 201.643L107.679 202.077C107.565 202.25 107.42 202.414 107.244 202.57C107.068 202.727 106.852 202.854 106.595 202.951C106.341 203.049 106.04 203.098 105.691 203.098Z" fill="white"/>
</svg>
