<svg width="256" height="256" viewBox="0 0 256 256" fill="none" xmlns="http://www.w3.org/2000/svg">
<rect width="256" height="256" rx="5" fill="#D9D9D9"/>
<path d="M120.794 64.6094V194H98.4883L40.458 101.312V194H18.1523V64.6094H40.458L98.666 157.476V64.6094H120.794ZM195.887 135.525H162.917L162.739 119.263H191.532C196.39 119.263 200.508 118.552 203.885 117.13C207.321 115.649 209.928 113.546 211.705 110.82C213.482 108.036 214.371 104.688 214.371 100.778C214.371 96.4535 213.542 92.9284 211.883 90.2031C210.224 87.4779 207.676 85.4932 204.24 84.249C200.863 83.0049 196.538 82.3828 191.266 82.3828H169.671V194H147.365V64.6094H191.266C198.375 64.6094 204.714 65.2907 210.283 66.6533C215.911 68.016 220.681 70.1488 224.591 73.0518C228.56 75.8955 231.552 79.5094 233.566 83.8936C235.64 88.2777 236.677 93.4912 236.677 99.5342C236.677 104.866 235.403 109.754 232.855 114.197C230.308 118.581 226.546 122.166 221.569 124.95C216.593 127.735 210.402 129.394 202.996 129.927L195.887 135.525ZM194.909 194H155.896L165.938 176.315H194.909C199.945 176.315 204.151 175.486 207.528 173.827C210.905 172.109 213.423 169.769 215.082 166.807C216.8 163.785 217.659 160.26 217.659 156.231C217.659 152.025 216.919 148.382 215.438 145.301C213.956 142.161 211.616 139.761 208.417 138.103C205.218 136.384 201.041 135.525 195.887 135.525H170.826L171.004 119.263H203.618L208.684 125.395C215.793 125.632 221.629 127.201 226.19 130.104C230.812 133.007 234.248 136.77 236.499 141.391C238.75 146.012 239.876 150.988 239.876 156.32C239.876 164.555 238.069 171.457 234.455 177.026C230.9 182.595 225.776 186.831 219.081 189.734C212.386 192.578 204.329 194 194.909 194Z" fill="#333333"/>
</svg>
